<svg width="335" height="212" viewBox="0 0 335 212" fill="none" xmlns="http://www.w3.org/2000/svg">
<path d="M125.606 181.826C131.072 187.076 131.072 195.583 125.606 200.833C120.14 206.083 111.275 206.083 105.81 200.833L6.82504 105.784L105.808 10.735C111.274 5.48503 120.137 5.48503 125.604 10.735C131.07 15.985 131.07 24.492 125.604 29.749L46.418 105.784L125.606 181.826Z" fill="#9BFC1D"/>
<path d="M115.705 1.34379e-05C120.999 -0.0019861 126.298 1.93503 130.331 5.80803C134.331 9.64603 136.531 14.768 136.531 20.231C136.531 25.697 134.331 30.826 130.338 34.668L56.272 105.785L130.333 176.905L130.333 176.903C134.333 180.741 136.533 185.865 136.533 191.329C136.533 196.793 134.333 201.919 130.333 205.757C122.266 213.504 109.146 213.505 101.079 205.755L2.09901 110.707C0.759008 109.42 9.08545e-06 107.642 9.24796e-06 105.783C9.41048e-06 103.924 0.759009 102.146 2.09901 100.859L101.086 5.81001C105.112 1.93701 110.411 1.29751e-05 115.705 1.34379e-05ZM115.705 197.929C117.591 197.929 119.478 197.255 120.878 195.908C122.165 194.669 122.878 193.042 122.878 191.327C122.878 189.614 122.165 187.989 120.878 186.75L120.878 186.748L41.692 110.704C40.352 109.417 39.593 107.639 39.593 105.78C39.593 103.921 40.352 102.143 41.692 100.855L120.878 24.821C122.165 23.579 122.878 21.949 122.878 20.233C122.878 18.52 122.165 16.893 120.878 15.652C118.071 12.967 113.338 12.955 110.544 15.65L16.677 105.779L110.539 195.908C111.939 197.256 113.824 197.929 115.705 197.929Z" fill="black"/>
<path d="M228.004 181.826C233.47 187.076 233.47 195.583 228.004 200.833C222.538 206.083 213.675 206.083 208.208 200.833L109.225 105.784L208.208 10.735C213.674 5.48504 222.537 5.48504 228.004 10.735C233.47 15.985 233.47 24.492 228.004 29.749L148.818 105.784L228.004 181.826Z" fill="#26BBEC"/>
<path d="M218.105 0.00102815C223.404 0.00102861 228.698 1.93603 232.731 5.80703C236.731 9.64503 238.931 14.767 238.931 20.23C238.931 25.696 236.731 30.825 232.738 34.667L158.672 105.784L232.733 176.904L232.733 176.902C236.733 180.74 238.933 185.864 238.933 191.328C238.933 196.792 236.733 201.918 232.733 205.756C224.666 213.503 211.546 213.501 203.479 205.758L104.499 110.707C103.159 109.42 102.4 107.642 102.4 105.783C102.4 103.924 103.159 102.146 104.499 100.859L203.479 5.81002C207.512 1.93702 212.804 0.00102768 218.105 0.00102815ZM218.105 197.929C219.991 197.929 221.878 197.255 223.278 195.908C224.565 194.669 225.278 193.042 225.278 191.327C225.278 189.614 224.565 187.989 223.278 186.75L223.278 186.748L144.092 110.704C142.752 109.417 141.993 107.639 141.993 105.78C141.993 103.921 142.752 102.143 144.092 100.855L223.278 24.821C224.565 23.579 225.278 21.949 225.278 20.233C225.278 18.52 224.565 16.893 223.278 15.652C220.477 12.962 215.731 12.961 212.932 15.654L119.077 105.783L212.93 195.91C214.332 197.256 216.218 197.929 218.105 197.929Z" fill="black"/>
<path d="M323.577 181.826C329.043 187.076 329.043 195.583 323.577 200.833C318.111 206.083 309.248 206.083 303.781 200.833L204.798 105.784L303.781 10.735C309.247 5.48504 318.112 5.48505 323.577 10.735C329.043 15.985 329.043 24.492 323.577 29.749L244.391 105.784L323.577 181.826Z" fill="#288EEA"/>
<path d="M313.685 0.00504121C318.979 0.00304167 324.278 1.93905 328.304 5.80805C332.304 9.64605 334.504 14.7681 334.504 20.2311C334.504 25.6971 332.304 30.8261 328.311 34.6681L254.245 105.785L328.306 176.904L328.306 176.902C332.305 180.741 334.505 185.864 334.505 191.329C334.505 196.794 332.305 201.919 328.305 205.757C320.251 213.492 307.118 213.498 299.051 205.76L200.071 110.707C198.731 109.42 197.972 107.642 197.972 105.783C197.972 103.924 198.731 102.146 200.071 100.859L299.051 5.81003C303.085 1.94003 308.384 0.00504075 313.685 0.00504121ZM313.679 197.961C315.553 197.961 317.425 197.278 318.852 195.91C320.139 194.671 320.852 193.045 320.852 191.329C320.852 189.616 320.139 187.991 318.852 186.752L318.852 186.75L239.666 110.706C238.326 109.419 237.567 107.641 237.567 105.782C237.567 103.923 238.326 102.145 239.666 100.857L318.852 24.8231C320.139 23.5811 320.852 21.9511 320.852 20.2351C320.852 18.5221 320.139 16.8951 318.852 15.6541C315.998 12.9201 311.358 12.92 308.506 15.657L214.651 105.783L308.506 195.91C309.932 197.277 311.805 197.961 313.679 197.961Z" fill="black"/>
</svg>
