<svg width="335" height="212" viewBox="0 0 335 212" fill="none" xmlns="http://www.w3.org/2000/svg">
<path d="M208.899 29.7414C203.433 24.4914 203.433 15.9844 208.899 10.7344C214.365 5.48438 223.23 5.48438 228.695 10.7344L327.68 105.783L228.697 200.832C223.231 206.082 214.368 206.082 208.901 200.832C203.435 195.582 203.435 187.075 208.901 181.818L288.087 105.783L208.899 29.7414Z" fill="#9BFC1D"/>
<path d="M218.8 211.567C213.506 211.569 208.207 209.632 204.174 205.759C200.174 201.921 197.974 196.799 197.974 191.336C197.974 185.87 200.174 180.741 204.167 176.899L278.233 105.782L204.172 34.6624L204.172 34.6644C200.172 30.8264 197.972 25.7024 197.972 20.2384C197.972 14.7744 200.172 9.64838 204.172 5.81038C212.239 -1.93662 225.359 -1.93762 233.426 5.81238L332.406 100.86C333.746 102.147 334.505 103.925 334.505 105.784C334.505 107.643 333.746 109.421 332.406 110.708L233.419 205.757C229.393 209.63 224.094 211.567 218.8 211.567ZM218.8 13.6384C216.914 13.6384 215.027 14.3124 213.627 15.6594C212.34 16.8984 211.627 18.5254 211.627 20.2404C211.627 21.9534 212.34 23.5784 213.627 24.8174L213.627 24.8194L292.813 100.863C294.153 102.15 294.912 103.928 294.912 105.787C294.912 107.646 294.153 109.424 292.813 110.712L213.627 186.746C212.34 187.988 211.627 189.618 211.627 191.334C211.627 193.047 212.34 194.674 213.627 195.915C216.434 198.6 221.167 198.612 223.961 195.917L317.828 105.788L223.966 15.6594C222.566 14.3114 220.681 13.6384 218.8 13.6384Z" fill="black"/>
<path d="M106.501 29.7414C101.035 24.4914 101.035 15.9844 106.501 10.7344C111.967 5.48436 120.83 5.48436 126.297 10.7344L225.28 105.783L126.297 200.832C120.831 206.082 111.968 206.082 106.501 200.832C101.035 195.582 101.035 187.075 106.501 181.818L185.687 105.783L106.501 29.7414Z" fill="#26BBEC"/>
<path d="M116.4 211.566C111.101 211.566 105.807 209.631 101.774 205.76C97.774 201.922 95.574 196.8 95.574 191.337C95.574 185.871 97.774 180.742 101.767 176.9L175.833 105.783L101.772 34.6634L101.772 34.6654C97.772 30.8274 95.572 25.7034 95.572 20.2394C95.572 14.7754 97.772 9.64935 101.772 5.81135C109.839 -1.93565 122.959 -1.93364 131.026 5.80936L230.006 100.86C231.346 102.147 232.105 103.925 232.105 105.784C232.105 107.643 231.346 109.421 230.006 110.708L131.026 205.757C126.993 209.63 121.701 211.566 116.4 211.566ZM116.4 13.6384C114.514 13.6384 112.627 14.3124 111.227 15.6594C109.94 16.8984 109.227 18.5254 109.227 20.2404C109.227 21.9534 109.94 23.5784 111.227 24.8174L111.227 24.8194L190.413 100.863C191.753 102.15 192.512 103.928 192.512 105.787C192.512 107.646 191.753 109.424 190.413 110.712L111.227 186.746C109.94 187.988 109.227 189.618 109.227 191.334C109.227 193.047 109.94 194.674 111.227 195.915C114.028 198.605 118.774 198.606 121.573 195.913L215.428 105.784L121.575 15.6574C120.173 14.3114 118.287 13.6384 116.4 13.6384Z" fill="black"/>
<path d="M10.928 29.7413C5.46202 24.4913 5.46202 15.9843 10.928 10.7343C16.394 5.48435 25.257 5.48435 30.724 10.7343L129.707 105.783L30.724 200.832C25.258 206.082 16.393 206.082 10.928 200.832C5.46199 195.582 5.46199 187.075 10.928 181.818L90.114 105.783L10.928 29.7413Z" fill="#288EEA"/>
<path d="M20.82 211.562C15.526 211.564 10.227 209.628 6.20099 205.759C2.201 201.921 0.000996109 196.799 0.000997064 191.336C0.00099802 185.87 2.201 180.741 6.194 176.899L80.26 105.782L6.19902 34.6633L6.19902 34.6653C2.20002 30.8263 2.60246e-05 25.7033 2.69801e-05 20.2383C2.79357e-05 14.7733 2.20003 9.64834 6.20003 5.81034C14.254 -1.92466 27.387 -1.93066 35.454 5.80734L134.434 100.86C135.774 102.147 136.533 103.925 136.533 105.784C136.533 107.643 135.774 109.421 134.434 110.708L35.454 205.757C31.42 209.627 26.121 211.562 20.82 211.562ZM20.826 13.6063C18.952 13.6063 17.08 14.2893 15.653 15.6573C14.366 16.8963 13.653 18.5223 13.653 20.2383C13.653 21.9513 14.366 23.5763 15.653 24.8153L15.653 24.8173L94.839 100.861C96.179 102.148 96.938 103.926 96.938 105.785C96.938 107.644 96.179 109.422 94.839 110.71L15.653 186.744C14.366 187.986 13.653 189.616 13.653 191.332C13.653 193.045 14.366 194.672 15.653 195.913C18.507 198.647 23.147 198.647 25.999 195.91L119.854 105.784L25.999 15.6573C24.573 14.2903 22.7 13.6063 20.826 13.6063Z" fill="black"/>
</svg>
